<svg width="48" height="48" viewBox="0 0 48 48" fill="none" xmlns="http://www.w3.org/2000/svg">
<g clip-path="url(#clip0_9002_1174)">
<path d="M48.0001 24.1292C47.9281 37.3848 37.1252 48.0718 23.87 47.9998C10.6158 47.9287 -0.0716571 37.1254 0.000361855 23.8688C0.0719203 10.6159 10.8748 -0.0714771 24.1304 0.000514166C37.3842 0.0712036 48.0716 10.8749 48.0001 24.1292Z" fill="#2F3747"/>
<path d="M43.6595 24.1056C43.6009 34.9639 34.7513 43.7183 23.894 43.6588C13.0362 43.6007 4.28129 34.7515 4.34039 23.8933C4.39901 13.0364 13.2481 4.28196 24.1064 4.34013C34.9637 4.39923 43.7186 13.2483 43.6595 24.1056Z" fill="#FFFFFE"/>
<path d="M23.8943 5.24855C24.2985 5.25075 24.6244 5.58024 24.6222 5.98447L24.6029 9.5904C24.6007 9.99465 24.2712 10.3206 23.8669 10.3185C23.4627 10.3163 23.1368 9.98676 23.139 9.58254L23.1584 5.97649C23.1606 5.57227 23.4901 5.24637 23.8943 5.24855Z" fill="#2F3747"/>
<path d="M23.7171 38.0416C24.1213 38.0438 24.4472 38.3733 24.445 38.7775L24.4256 42.384C24.4234 42.7882 24.0939 43.1141 23.6897 43.1119C23.2855 43.1097 22.9596 42.7802 22.9617 42.376L22.9811 38.7695C22.9833 38.3653 23.3128 38.0394 23.7171 38.0416Z" fill="#2F3747"/>
<path d="M9.20358 23.369C9.6078 23.3713 9.93358 23.7009 9.9313 24.1052C9.92901 24.5094 9.5995 24.8353 9.19527 24.833L5.58789 24.8126C5.18366 24.8103 4.85779 24.4808 4.86006 24.0766C4.86234 23.6723 5.19186 23.3465 5.59609 23.3487L9.20358 23.369Z" fill="#2F3747"/>
<path d="M41.9961 23.5473C42.4003 23.5495 42.7262 23.8791 42.7239 24.2833C42.7217 24.6875 42.3922 25.0135 41.988 25.0113L38.3811 24.9913C37.9769 24.9891 37.6509 24.6596 37.6531 24.2554C37.6554 23.8512 37.9848 23.5252 38.3891 23.5274L41.9961 23.5473Z" fill="#2F3747"/>
<path d="M10.4389 10.7586C10.7254 10.4735 11.1888 10.4747 11.4739 10.7613L14.0182 13.3184C14.3033 13.605 14.3021 14.0685 14.0155 14.3536C13.729 14.6387 13.2655 14.6375 12.9803 14.3509L10.4362 11.7937C10.1511 11.5071 10.1523 11.0437 10.4389 10.7586Z" fill="#2F3747"/>
<path d="M33.5684 34.0059C33.855 33.7208 34.3185 33.722 34.6036 34.0086L37.1478 36.5662C37.4329 36.8528 37.4317 37.3163 37.1451 37.6014C36.8585 37.8865 36.395 37.8852 36.1099 37.5986L33.5657 35.0411C33.2806 34.7545 33.2818 34.291 33.5684 34.0059Z" fill="#2F3747"/>
<path d="M13.2036 34.2491C13.4823 33.9563 13.9457 33.9449 14.2385 34.2236C14.5312 34.5024 14.5427 34.9657 14.2639 35.2585L11.777 37.871C11.4982 38.1638 11.0349 38.1752 10.7421 37.8965C10.4493 37.6178 10.4379 37.1544 10.7166 36.8616L13.2036 34.2491Z" fill="#2F3747"/>
<path d="M35.8069 10.489C36.0855 10.1961 36.5489 10.1846 36.8417 10.4633C37.1346 10.742 37.146 11.2053 36.8673 11.4981L34.3809 14.1112C34.1022 14.4041 33.6389 14.4155 33.346 14.1368C33.0532 13.8581 33.0417 13.3949 33.3203 13.1021L35.8069 10.489Z" fill="#2F3747"/>
<path d="M24.6452 23.716L24.1088 15.082L23.5372 23.71L24.6452 23.716Z" fill="#343534"/>
<path d="M24.0925 23.4312L10.3854 23.9399L24.087 24.5382L24.0925 23.4312Z" fill="#343534"/>
<path d="M25.4637 26.3032L25.2389 26.4329L16.7397 11.6464L16.9646 11.518L25.4637 26.3032Z" fill="#2F3747"/>
<path d="M25.243 23.9902C25.2398 24.6278 24.7209 25.1407 24.0833 25.1375C23.4467 25.1352 22.9329 24.6154 22.9361 23.9782C22.9398 23.3426 23.4592 22.8287 24.0958 22.8315C24.7324 22.8352 25.2463 23.3546 25.243 23.9902Z" fill="#343534"/>
</g>
<defs>
<clipPath id="clip0_9002_1174">
<rect width="48" height="48" fill="white"/>
</clipPath>
</defs>
</svg>
