<?xml version="1.0" encoding="UTF-8" standalone="no"?><!DOCTYPE svg PUBLIC "-//W3C//DTD SVG 1.1//EN" "http://www.w3.org/Graphics/SVG/1.1/DTD/svg11.dtd"><svg width="100%" height="100%" viewBox="0 0 1545 1545" version="1.1" xmlns="http://www.w3.org/2000/svg" xmlns:xlink="http://www.w3.org/1999/xlink" xml:space="preserve" xmlns:serif="http://www.serif.com/" style="fill-rule:evenodd;clip-rule:evenodd;stroke-linejoin:round;stroke-miterlimit:2;"><g id="圖層-1" serif:id="圖層 1"><path d="M1305.21,1208.34c-212.5,236.108 -477.783,247.221 -477.783,247.221c-5.554,-691.667 616.666,-786.113 616.666,-786.113c50,355.554 -138.883,538.892 -138.883,538.892m-342.029,-1131.6l0.217,36.642l0.166,7.145c240.021,70.492 424.842,269.942 474.334,518.213c-39.596,6.988 -226.805,46.363 -388.93,188.921c-15.145,13.317 -30.07,27.537 -44.637,42.716c-2.788,2.9 -5.563,5.83 -8.325,8.809c-12.746,13.733 -25.179,28.237 -37.225,43.525c-94.754,120.292 -164.796,289.9 -162.842,528.217c0.013,1.616 0.067,3.279 0.088,4.904c0.071,7.546 0.154,15.1 0.329,22.766l-0,15.409c387.317,-12.75 697.4,-330.996 697.4,-721.784c-0,-332.937 -225.088,-613.204 -531.233,-696.783l0.025,1.108c0.375,0.109 0.633,0.192 0.633,0.192" style="fill:#fff;fill-rule:nonzero;"/><path d="M962.439,75.418c-17.421,-4.755 -35.1,-8.867 -53.021,-12.321l-0,0.075c17.162,3.383 34.821,7.391 53.021,12.246" style="fill:#fff;fill-rule:nonzero;"/><path d="M930.395,111.697c11.129,2.662 22.15,5.6 33.063,8.8c-1.171,-0.379 -12.967,-4.179 -33.063,-8.8" style="fill:#fff;fill-rule:nonzero;"/><path d="M844.749,53.146l7.321,-0.017l-0.496,-49.096c-26.092,-2.662 -52.559,-4.033 -79.35,-4.033c-20.896,0 -41.596,0.858 -62.075,2.488l-1.063,48.212c37.417,-3.033 83.192,-3.417 135.663,2.446" style="fill:#d25c2d;fill-rule:nonzero;"/><path d="M899.139,577.432l-86.112,-0l-0,93.75l109.783,-0c-8.683,-29.029 -16.808,-60.379 -23.671,-93.75" style="fill:#d25c2d;fill-rule:nonzero;"/><path d="M633.447,671.182l103.538,-0l-0,-93.75l-79.867,-0c-6.863,33.371 -14.988,64.721 -23.671,93.75" style="fill:#d25c2d;fill-rule:nonzero;"/><path d="M813.025,734.723l-0,59.288c42.566,4.158 111.429,21.796 182.983,85.175c2.762,-2.979 5.537,-5.908 8.325,-8.808c-12.238,-22.35 -36.475,-69.842 -60.479,-135.655l-130.829,0Z" style="fill:#d25c2d;fill-rule:nonzero;"/><path d="M736.983,794.628l-0,-59.905l-124.579,0c-22.129,60.671 -44.459,105.78 -57.404,129.967c4.483,4.425 8.937,8.917 13.35,13.513c24.229,-22.196 89.966,-75.659 168.633,-83.575" style="fill:#d25c2d;fill-rule:nonzero;"/><path d="M910.4,12.346l-0.983,50.754c17.921,3.45 35.6,7.567 53.021,12.317c0.029,0.008 0.058,0.016 0.087,0.025c306.146,83.579 531.233,363.846 531.233,696.783c0,390.788 -310.087,709.033 -697.4,721.779l0,-15.404c-0.175,-7.667 -0.258,-15.221 -0.329,-22.767c-0.021,-1.629 -0.075,-3.287 -0.087,-4.908c-1.955,-238.312 68.087,-407.921 162.841,-528.212c-57.712,-56.071 -189.112,-144.105 -354.321,-3.888c98.634,120.088 170.867,290.758 166.155,532.554c-0.029,1.458 -0.088,2.95 -0.121,4.413c-0.246,12.72 -0.621,25.579 -1.154,38.62c-0.309,-0.004 -0.621,-0.012 -0.934,-0.012c-396.733,-2.062 -717.712,-324.583 -717.712,-722.175c-0,-339.108 233.5,-623.575 548.333,-701.225c4.988,-1.708 23.258,-7.558 52.625,-12.879l-1.129,-48.396c0,0 1.125,-0.25 3.004,-0.646c-370.137,57.1 -653.529,377.021 -653.529,763.146c-0,426.488 345.733,772.225 772.225,772.225c426.487,0 772.225,-345.737 772.225,-772.225c0,-379.321 -273.496,-694.746 -634.05,-759.879" style="fill:#d25c2d;fill-rule:nonzero;"/><path d="M105.415,640.886c31.788,4.687 231.596,39.062 404.059,182.579c16.466,-31.437 29.979,-61.267 41,-88.742l-38.492,0l0,-63.541l61.267,-0c13.6,-43.121 20.141,-75.917 23.058,-93.75l-59.325,-0l0,-61.459l476.042,0l-0,61.459l-53.075,-0c2.921,17.833 9.458,50.629 23.058,93.75l64.913,-0l-0,63.541l-42.138,0c11.513,28.705 25.704,59.95 43.188,92.938c162.125,-142.558 349.333,-181.933 388.929,-188.921c-49.492,-248.271 -234.313,-447.721 -474.334,-518.212l0,0.004c0,-0 -0.045,-0.013 -0.108,-0.038c-10.908,-3.2 -21.929,-6.137 -33.062,-8.796c-5.134,-1.183 -10.8,-2.412 -16.975,-3.658c1.42,280.854 29.97,394.046 29.97,394.046l-59.029,-0c-24.291,-78 -33.283,-359.663 -34.558,-403.858c-39.35,-4.309 -86.683,-6.321 -138.446,-2.034c-1.033,36.654 -9.912,326.571 -34.617,405.892l-59.029,-0c0,-0 28.95,-118.588 30.538,-397.604c-16.763,3.029 -33.8,6.787 -51.021,11.416l-0,-0.133c-248.983,66.071 -441.817,270 -491.813,525.121" style="fill:#d25c2d;fill-rule:nonzero;"/><path d="M651.656,58.12c-29.371,5.321 -47.642,11.175 -52.625,12.879c-0.925,0.317 -1.454,0.509 -1.454,0.509l-0.159,19.945l-0.537,20.355l0.379,-0.075l-0.033,4.029l-0,0.137c17.221,-4.629 34.262,-8.387 51.025,-11.421c-1.588,279.021 -30.538,397.609 -30.538,397.609l59.029,-0c24.705,-79.321 33.584,-369.238 34.617,-405.892c51.758,-4.292 99.096,-2.275 138.446,2.033c1.271,44.192 10.262,325.859 34.558,403.859l59.029,-0c0,-0 -28.554,-113.192 -29.975,-394.046c6.18,1.242 11.846,2.475 16.975,3.654c20.096,4.621 31.896,8.421 33.063,8.8c0.067,0.025 0.108,0.038 0.108,0.038l0,-0.005l-0.162,-7.145l-0.217,-36.646c0,-0 -0.262,-0.079 -0.633,-0.192l-0.029,-1.104c-0.025,-0.008 -0.055,-0.017 -0.084,-0.025c-18.2,-4.854 -35.858,-8.863 -53.021,-12.246l0,-0.071l0.984,-50.754l0.021,-1.058c-0,-0 -35.588,-8.163 -58.855,-7.813l0.005,0.559l0.5,49.095l-7.325,0.017c-52.471,-5.862 -98.246,-5.479 -135.663,-2.446l1.063,-48.212l0.012,-0.575c-19.292,-0.292 -47.525,5.258 -56.633,7.166c-1.875,0.396 -3,0.646 -3,0.646l1.129,48.396Z" style="fill:#17549b;fill-rule:nonzero;"/><path d="M736.983,671.182l-103.538,-0c8.688,-29.029 16.809,-60.379 23.675,-93.75l79.863,-0l-0,93.75Zm76.042,-93.75l86.112,-0c6.867,33.371 14.988,64.721 23.675,93.75l-109.787,-0l-0,-93.75Zm-0,216.579l-0,-59.288l130.829,0c24.004,65.813 48.241,113.305 60.479,135.655c14.567,-15.18 29.492,-29.4 44.637,-42.717c-17.483,-32.988 -31.675,-64.233 -43.187,-92.938l42.137,0l0,-63.541l-64.912,-0c-13.6,-43.121 -20.142,-75.917 -23.058,-93.75l53.075,-0l-0,-61.459l-476.042,0l-0,61.459l59.325,-0c-2.917,17.833 -9.458,50.629 -23.058,93.75l-61.267,-0l-0,63.541l38.492,0c-11.021,27.475 -24.534,57.305 -41,88.742c15.441,12.85 30.662,26.571 45.525,41.225c12.945,-24.187 35.275,-69.296 57.404,-129.967l124.579,0l-0,59.905c-78.667,7.916 -144.404,61.379 -168.633,83.575c12.354,12.854 24.416,26.387 36.112,40.625c165.208,-140.221 296.608,-52.188 354.321,3.883c12.046,-15.288 24.479,-29.792 37.225,-43.525c-71.554,-63.379 -140.417,-81.017 -182.983,-85.175" style="fill:#17549b;fill-rule:nonzero;"/><path d="M743.408,1459.03c-0,-0 -300.792,-15.096 -493.329,-233.621c-103.417,-117.371 -196.95,-353.188 -153.184,-557.354c0,-0 652.792,78.329 646.513,790.975m-188.408,-594.342c-14.863,-14.654 -30.084,-28.375 -45.525,-41.225c-172.463,-143.517 -372.271,-177.887 -404.059,-182.579c49.996,-255.121 242.829,-459.05 491.813,-525.121l0.033,-4.033l-0.383,0.079l0.541,-20.358l0.155,-19.942c-0,-0 0.533,-0.196 1.458,-0.513c-314.833,77.655 -548.338,362.121 -548.338,701.225c0,397.596 320.98,720.113 717.713,722.175c0.312,0 0.625,0.009 0.937,0.013c0.53,-13.042 0.905,-25.9 1.15,-38.617c0.034,-1.466 0.092,-2.954 0.121,-4.416c4.717,-241.792 -67.521,-412.463 -166.154,-532.55c-11.696,-14.238 -23.758,-27.771 -36.112,-40.625c-4.413,-4.596 -8.867,-9.088 -13.35,-13.513" style="fill:#fff;fill-rule:nonzero;"/><path d="M96.897,668.057c-43.767,204.166 49.767,439.983 153.179,557.354c192.542,218.525 493.334,233.621 493.334,233.621c6.275,-712.646 -646.513,-790.975 -646.513,-790.975" style="fill:#146836;fill-rule:nonzero;"/><path d="M827.429,1455.56c-0,-0 265.283,-11.113 477.783,-247.221c0,-0 188.883,-183.338 138.883,-538.892c0,0 -622.22,94.446 -616.666,786.113" style="fill:#146836;fill-rule:nonzero;"/></g></svg>