<svg width="48" height="48" viewBox="0 0 48 48" fill="none" xmlns="http://www.w3.org/2000/svg">
<path d="M6.12497 9.91505C6.12497 10.3181 5.7986 10.6445 5.39555 10.6445H3.77497C3.37241 10.6445 3.04553 10.3181 3.04553 9.91505V4.72891C3.04553 4.32637 3.37241 4 3.77497 4H5.39555C5.7986 4 6.12497 4.32637 6.12497 4.72891V9.91505Z" fill="#EB8B2D"/>
<path d="M12.4456 9.91505C12.4456 10.3181 12.1192 10.6445 11.7161 10.6445H10.0956C9.69299 10.6445 9.36612 10.3181 9.36612 9.91505V4.72891C9.36612 4.32637 9.69299 4 10.0956 4H11.7161C12.1192 4 12.4456 4.32637 12.4456 4.72891V9.91505Z" fill="#EB8B2D"/>
<path d="M18.7662 9.91505C18.7662 10.3181 18.4398 10.6445 18.0367 10.6445H16.4162C16.0136 10.6445 15.6867 10.3181 15.6867 9.91505V4.72891C15.6867 4.32637 16.0136 4 16.4162 4H18.0367C18.4398 4 18.7662 4.32637 18.7662 4.72891V9.91505Z" fill="#EB8B2D"/>
<path d="M25.0868 9.91505C25.0868 10.3181 24.7604 10.6445 24.3574 10.6445H22.7363C22.3342 10.6445 22.0074 10.3181 22.0074 9.91505V4.72891C22.0074 4.32637 22.3342 4 22.7363 4H24.3574C24.7604 4 25.0868 4.32637 25.0868 4.72891V9.91505Z" fill="#EB8B2D"/>
<path d="M31.4074 9.91505C31.4074 10.3181 31.0805 10.6445 30.6784 10.6445H29.0574C28.6543 10.6445 28.3279 10.3181 28.3279 9.91505V4.72891C28.3279 4.32637 28.6543 4 29.0574 4H30.6784C31.0805 4 31.4074 4.32637 31.4074 4.72891V9.91505Z" fill="#EB8B2D"/>
<path d="M37.728 9.91505C37.728 10.3181 37.4011 10.6445 36.9986 10.6445H35.378C34.9749 10.6445 34.6486 10.3181 34.6486 9.91505V4.72891C34.6486 4.32637 34.9749 4 35.378 4H36.9986C37.4011 4 37.728 4.32637 37.728 4.72891V9.91505Z" fill="#EB8B2D"/>
<path d="M44.0486 9.91505C44.0486 10.3181 43.7218 10.6445 43.3192 10.6445H41.6986C41.2955 10.6445 40.9692 10.3181 40.9692 9.91505V4.72891C40.9692 4.32637 41.2955 4 41.6986 4H43.3192C43.7218 4 44.0486 4.32637 44.0486 4.72891V9.91505Z" fill="#EB8B2D"/>
<path d="M6.12497 9.91505C6.12497 10.3181 5.7986 10.6445 5.39555 10.6445H3.77497C3.37241 10.6445 3.04553 10.3181 3.04553 9.91505V4.72891C3.04553 4.32637 3.37241 4 3.77497 4H5.39555C5.7986 4 6.12497 4.32637 6.12497 4.72891V9.91505Z" fill="#EB8B2D"/>
<path d="M12.4456 9.91505C12.4456 10.3181 12.1192 10.6445 11.7161 10.6445H10.0956C9.69299 10.6445 9.36612 10.3181 9.36612 9.91505V4.72891C9.36612 4.32637 9.69299 4 10.0956 4H11.7161C12.1192 4 12.4456 4.32637 12.4456 4.72891V9.91505Z" fill="#EB8B2D"/>
<path d="M18.7662 9.91505C18.7662 10.3181 18.4398 10.6445 18.0367 10.6445H16.4162C16.0136 10.6445 15.6867 10.3181 15.6867 9.91505V4.72891C15.6867 4.32637 16.0136 4 16.4162 4H18.0367C18.4398 4 18.7662 4.32637 18.7662 4.72891V9.91505Z" fill="#EB8B2D"/>
<path d="M25.0868 9.91505C25.0868 10.3181 24.7604 10.6445 24.3574 10.6445H22.7363C22.3342 10.6445 22.0074 10.3181 22.0074 9.91505V4.72891C22.0074 4.32637 22.3342 4 22.7363 4H24.3574C24.7604 4 25.0868 4.32637 25.0868 4.72891V9.91505Z" fill="#EB8B2D"/>
<path d="M31.4074 9.91505C31.4074 10.3181 31.0805 10.6445 30.6784 10.6445H29.0574C28.6543 10.6445 28.3279 10.3181 28.3279 9.91505V4.72891C28.3279 4.32637 28.6543 4 29.0574 4H30.6784C31.0805 4 31.4074 4.32637 31.4074 4.72891V9.91505Z" fill="#EB8B2D"/>
<path d="M37.728 9.91505C37.728 10.3181 37.4011 10.6445 36.9986 10.6445H35.378C34.9749 10.6445 34.6486 10.3181 34.6486 9.91505V4.72891C34.6486 4.32637 34.9749 4 35.378 4H36.9986C37.4011 4 37.728 4.32637 37.728 4.72891V9.91505Z" fill="#EB8B2D"/>
<path d="M44.0486 9.91505C44.0486 10.3181 43.7218 10.6445 43.3192 10.6445H41.6986C41.2955 10.6445 40.9692 10.3181 40.9692 9.91505V4.72891C40.9692 4.32637 41.2955 4 41.6986 4H43.3192C43.7218 4 44.0486 4.32637 44.0486 4.72891V9.91505Z" fill="#EB8B2D"/>
<path d="M48 42.7071C48 43.5235 47.3374 44.1861 46.521 44.1861H1.47902C0.662093 44.1861 0 43.5235 0 42.7071V9.89491C0 9.07802 0.662093 8.41589 1.47902 8.41589H46.521C47.3374 8.41589 48 9.07802 48 9.89491V42.7071Z" fill="#E4E4E3"/>
<path d="M48 17.9231V9.89491C48 9.07802 47.3374 8.41589 46.521 8.41589H1.47902C0.662093 8.41589 0 9.07802 0 9.89491V17.9231H48Z" fill="#EB8B2D"/>
<path d="M10.5006 24.4973C10.5006 24.9004 10.1742 25.2267 9.77161 25.2267H5.39552C4.99295 25.2267 4.66656 24.9004 4.66656 24.4973V21.9448C4.66656 21.5423 4.99295 21.2159 5.39552 21.2159H9.77161C10.1742 21.2159 10.5006 21.5423 10.5006 21.9448V24.4973Z" fill="#8A8B8A"/>
<path d="M18.5229 24.4973C18.5229 24.9004 18.1965 25.2267 17.7939 25.2267H13.4178C13.0153 25.2267 12.6889 24.9004 12.6889 24.4973V21.9448C12.6889 21.5423 13.0153 21.2159 13.4178 21.2159H17.7939C18.1965 21.2159 18.5229 21.5423 18.5229 21.9448V24.4973Z" fill="#8A8B8A"/>
<path d="M26.5452 24.4973C26.5452 24.9004 26.2188 25.2267 25.8162 25.2267H21.4401C21.0376 25.2267 20.7107 24.9004 20.7107 24.4973V21.9448C20.7107 21.5423 21.0376 21.2159 21.4401 21.2159H25.8162C26.2188 21.2159 26.5452 21.5423 26.5452 21.9448V24.4973Z" fill="#8A8B8A"/>
<path d="M34.5675 24.4973C34.5675 24.9004 34.2411 25.2267 33.838 25.2267H29.4624C29.0598 25.2267 28.733 24.9004 28.733 24.4973V21.9448C28.733 21.5423 29.0598 21.2159 29.4624 21.2159H33.838C34.2411 21.2159 34.5675 21.5423 34.5675 21.9448V24.4973Z" fill="#8A8B8A"/>
<path d="M42.5897 24.4973C42.5897 24.9004 42.2633 25.2267 41.8603 25.2267H37.4847C37.0821 25.2267 36.7552 24.9004 36.7552 24.4973V21.9448C36.7552 21.5423 37.0821 21.2159 37.4847 21.2159H41.8603C42.2633 21.2159 42.5897 21.5423 42.5897 21.9448V24.4973Z" fill="#8A8B8A"/>
<path d="M10.5006 31.4403C10.5006 31.8428 10.1742 32.1692 9.77161 32.1692H5.39552C4.99295 32.1692 4.66656 31.8428 4.66656 31.4403V28.8877C4.66656 28.4846 4.99295 28.1583 5.39552 28.1583H9.77161C10.1742 28.1583 10.5006 28.4846 10.5006 28.8877V31.4403Z" fill="#8A8B8A"/>
<path d="M18.5229 31.4403C18.5229 31.8428 18.1965 32.1692 17.7939 32.1692H13.4178C13.0153 32.1692 12.6889 31.8428 12.6889 31.4403V28.8877C12.6889 28.4846 13.0153 28.1583 13.4178 28.1583H17.7939C18.1965 28.1583 18.5229 28.4846 18.5229 28.8877V31.4403Z" fill="#8A8B8A"/>
<path d="M26.5452 31.4403C26.5452 31.8428 26.2188 32.1692 25.8162 32.1692H21.4401C21.0376 32.1692 20.7107 31.8428 20.7107 31.4403V28.8877C20.7107 28.4846 21.0376 28.1583 21.4401 28.1583H25.8162C26.2188 28.1583 26.5452 28.4846 26.5452 28.8877V31.4403Z" fill="#8A8B8A"/>
<path d="M34.5675 31.4403C34.5675 31.8428 34.2411 32.1692 33.838 32.1692H29.4624C29.0598 32.1692 28.733 31.8428 28.733 31.4403V28.8877C28.733 28.4846 29.0598 28.1583 29.4624 28.1583H33.838C34.2411 28.1583 34.5675 28.4846 34.5675 28.8877V31.4403Z" fill="#8A8B8A"/>
<path d="M42.5897 31.4403C42.5897 31.8428 42.2633 32.1692 41.8603 32.1692H37.4847C37.0821 32.1692 36.7552 31.8428 36.7552 31.4403V28.8877C36.7552 28.4846 37.0821 28.1583 37.4847 28.1583H41.8603C42.2633 28.1583 42.5897 28.4846 42.5897 28.8877V31.4403Z" fill="#8A8B8A"/>
<path d="M10.5006 38.3821C10.5006 38.7851 10.1742 39.1115 9.77161 39.1115H5.39552C4.99295 39.1115 4.66656 38.7851 4.66656 38.3821V35.8296C4.66656 35.4271 4.99295 35.1002 5.39552 35.1002H9.77161C10.1742 35.1002 10.5006 35.4271 10.5006 35.8296V38.3821Z" fill="#8A8B8A"/>
<path d="M18.5229 38.3821C18.5229 38.7851 18.1965 39.1115 17.7939 39.1115H13.4178C13.0153 39.1115 12.6889 38.7851 12.6889 38.3821V35.8296C12.6889 35.4271 13.0153 35.1002 13.4178 35.1002H17.7939C18.1965 35.1002 18.5229 35.4271 18.5229 35.8296V38.3821Z" fill="#8A8B8A"/>
<path d="M26.5452 38.3821C26.5452 38.7851 26.2188 39.1115 25.8162 39.1115H21.4401C21.0376 39.1115 20.7107 38.7851 20.7107 38.3821V35.8296C20.7107 35.4271 21.0376 35.1002 21.4401 35.1002H25.8162C26.2188 35.1002 26.5452 35.4271 26.5452 35.8296V38.3821Z" fill="#8A8B8A"/>
<path d="M34.5675 38.3821C34.5675 38.7851 34.2411 39.1115 33.838 39.1115H29.4624C29.0598 39.1115 28.733 38.7851 28.733 38.3821V35.8296C28.733 35.4271 29.0598 35.1002 29.4624 35.1002H33.838C34.2411 35.1002 34.5675 35.4271 34.5675 35.8296V38.3821Z" fill="#8A8B8A"/>
<path d="M42.5897 38.3821C42.5897 38.7851 42.2633 39.1115 41.8603 39.1115H37.4847C37.0821 39.1115 36.7552 38.7851 36.7552 38.3821V35.8296C36.7552 35.4271 37.0821 35.1002 37.4847 35.1002H41.8603C42.2633 35.1002 42.5897 35.4271 42.5897 35.8296V38.3821Z" fill="#8A8B8A"/>
</svg>
