<svg xmlns="http://www.w3.org/2000/svg" width="1545" height="1545" viewBox="0 0 1545 1545"><metadata><rdf:RDF xmlns:rdf="http://www.w3.org/1999/02/22-rdf-syntax-ns#" xmlns:dc="http://purl.org/dc/elements/1.1/"><rdf:Description><dc:creator>RealFaviconGenerator</dc:creator><dc:source>https://realfavicongenerator.net</dc:source></rdf:Description></rdf:RDF></metadata><g id="-1">
        <path id="path1" fill="#ffffff" stroke="none" d="M 1305.209961 1208.339966 C 1092.709961 1444.447998 827.427002 1455.561035 827.427002 1455.561035 C 821.872986 763.893982 1444.093018 669.447998 1444.093018 669.447998 C 1494.093018 1025.001953 1305.209961 1208.339966 1305.209961 1208.339966 M 963.18103 76.73999 L 963.39801 113.381958 L 963.564026 120.526978 C 1203.584961 191.019043 1388.406006 390.468994 1437.897949 638.73999 C 1398.302002 645.728027 1211.093018 685.103027 1048.968018 827.661011 C 1033.822998 840.978027 1018.89801 855.197998 1004.330994 870.377014 C 1001.54303 873.276978 998.768005 876.20697 996.005981 879.185974 C 983.26001 892.919006 970.827026 907.422974 958.781006 922.710999 C 864.026978 1043.003052 793.984985 1212.610962 795.939026 1450.927979 C 795.952026 1452.543945 796.005981 1454.207031 796.026978 1455.832031 C 796.098022 1463.378052 796.18103 1470.932007 796.356018 1478.598022 L 796.356018 1494.006958 C 1183.672974 1481.256958 1493.755981 1163.010986 1493.755981 772.223022 C 1493.755981 439.286011 1268.667969 159.019043 962.52301 75.439941 L 962.547974 76.547974 C 962.922974 76.656982 963.18103 76.73999 963.18103 76.73999"></path>
        <path id="path2" fill="#ffffff" stroke="none" d="M 962.439026 75.417969 C 945.018005 70.662964 927.338989 66.551025 909.41803 63.097046 L 909.41803 63.171997 C 926.580017 66.555054 944.239014 70.562988 962.439026 75.417969"></path>
        <path id="path3" fill="#ffffff" stroke="none" d="M 930.39502 111.697021 C 941.523987 114.359009 952.544983 117.296997 963.458008 120.496948 C 962.286987 120.118042 950.491028 116.317993 930.39502 111.697021"></path>
        <path id="path4" fill="#d25c2d" stroke="none" d="M 844.749023 53.145996 L 852.070007 53.129028 L 851.573975 4.032959 C 825.481995 1.370972 799.015015 0 772.223999 0 C 751.328003 0 730.627991 0.858032 710.148987 2.488037 L 709.085999 50.699951 C 746.502991 47.666992 792.278015 47.282959 844.749023 53.145996"></path>
        <path id="path5" fill="#d25c2d" stroke="none" d="M 899.138977 577.432007 L 813.026978 577.432007 L 813.026978 671.182007 L 922.809998 671.182007 C 914.127014 642.153015 906.002014 610.802979 899.138977 577.432007"></path>
        <path id="path6" fill="#d25c2d" stroke="none" d="M 633.447021 671.182007 L 736.984985 671.182007 L 736.984985 577.432007 L 657.117981 577.432007 C 650.255005 610.802979 642.130005 642.153015 633.447021 671.182007"></path>
        <path id="path7" fill="#d25c2d" stroke="none" d="M 813.025024 734.723022 L 813.025024 794.010986 C 855.591003 798.169006 924.453979 815.807007 996.007996 879.185974 C 998.77002 876.20697 1001.544983 873.278015 1004.333008 870.377991 C 992.094971 848.028015 967.857971 800.536011 943.854004 734.723022 L 813.025024 734.723022 Z"></path>
        <path id="path8" fill="#d25c2d" stroke="none" d="M 736.982971 794.627991 L 736.982971 734.723022 L 612.403992 734.723022 C 590.275024 795.393982 567.945007 840.502991 555 864.690002 C 559.482971 869.11499 563.937012 873.606995 568.349976 878.203003 C 592.578979 856.007019 658.315979 802.544006 736.982971 794.627991"></path>
        <path id="path9" fill="#d25c2d" stroke="none" d="M 910.400024 12.345947 L 909.416992 63.099976 C 927.338013 66.550049 945.017029 70.666992 962.437988 75.416992 C 962.46698 75.425049 962.495972 75.432983 962.525024 75.442017 C 1268.671021 159.020996 1493.758057 439.287964 1493.758057 772.224976 C 1493.758057 1163.012939 1183.671021 1481.258057 796.357971 1494.004028 L 796.357971 1478.599976 C 796.182983 1470.932983 796.099976 1463.379028 796.028992 1455.833008 C 796.007996 1454.203979 795.953979 1452.546021 795.942017 1450.925049 C 793.987 1212.613037 864.028992 1043.004028 958.78302 922.713013 C 901.070984 866.642029 769.671021 778.607971 604.461975 918.825012 C 703.096008 1038.912964 775.328979 1209.583008 770.617004 1451.379028 C 770.588013 1452.837036 770.528992 1454.328979 770.495972 1455.791992 C 770.25 1468.511963 769.875 1481.370972 769.34198 1494.411987 C 769.03302 1494.407959 768.721008 1494.400024 768.40802 1494.400024 C 371.674988 1492.338013 50.695999 1169.817017 50.695999 772.224976 C 50.695999 433.116943 284.196014 148.650024 599.028992 71 C 604.017029 69.291992 622.286987 63.442017 651.653992 58.120972 L 650.525024 9.724976 C 650.525024 9.724976 651.650024 9.474976 653.528992 9.078979 C 283.391998 66.178955 0 386.099976 0 772.224976 C 0 1198.713013 345.733002 1544.449951 772.224976 1544.449951 C 1198.712036 1544.449951 1544.449951 1198.713013 1544.449951 772.224976 C 1544.449951 392.904053 1270.953979 77.479004 910.400024 12.345947"></path>
        <path id="path10" fill="#d25c2d" stroke="none" d="M 105.415001 640.885986 C 137.203003 645.572998 337.010986 679.947998 509.473999 823.465027 C 525.940002 792.028015 539.453003 762.197998 550.473999 734.723022 L 511.981995 734.723022 L 511.981995 671.182007 L 573.249023 671.182007 C 586.848999 628.060974 593.390015 595.265015 596.307007 577.432007 L 536.981995 577.432007 L 536.981995 515.973022 L 1013.023987 515.973022 L 1013.023987 577.432007 L 959.948975 577.432007 C 962.869995 595.265015 969.406982 628.060974 983.007019 671.182007 L 1047.920044 671.182007 L 1047.920044 734.723022 L 1005.781982 734.723022 C 1017.294983 763.427979 1031.485962 794.672974 1048.969971 827.661011 C 1211.094971 685.103027 1398.302979 645.728027 1437.899048 638.73999 C 1388.406982 390.468994 1203.58606 191.019043 963.565002 120.527954 L 963.565002 120.531982 C 963.565002 120.531982 963.52002 120.519043 963.45697 120.494019 C 952.549011 117.293945 941.528015 114.357056 930.39502 111.697998 C 925.260986 110.515015 919.594971 109.286011 913.419983 108.040039 C 914.840027 388.894043 943.390015 502.085938 943.390015 502.085938 L 884.361023 502.085938 C 860.070007 424.085938 851.078003 142.422974 849.802979 98.228027 C 810.453003 93.918945 763.119995 91.906982 711.356995 96.19397 C 710.323975 132.848022 701.445007 422.765015 676.73999 502.085938 L 617.710999 502.085938 C 617.710999 502.085938 646.661011 383.498047 648.249023 104.482056 C 631.486023 107.510986 614.448975 111.269043 597.228027 115.897949 L 597.228027 115.765015 C 348.244995 181.835938 155.410995 385.765015 105.415001 640.885986"></path>
        <path id="path11" fill="#17549b" stroke="none" d="M 651.656006 58.119995 C 622.284973 63.44104 604.013977 69.295044 599.031006 70.999023 C 598.106018 71.31604 597.577026 71.508057 597.577026 71.508057 L 597.41803 91.453003 L 596.880981 111.807983 L 597.26001 111.733032 L 597.22699 115.761963 L 597.22699 115.899048 C 614.447998 111.27002 631.489014 107.511963 648.252014 104.478027 C 646.664001 383.499023 617.713989 502.087036 617.713989 502.087036 L 676.742981 502.087036 C 701.447998 422.765991 710.327026 132.848999 711.359985 96.194946 C 763.117981 91.902954 810.455994 93.920044 849.80603 98.228027 C 851.077026 142.420044 860.067993 424.087036 884.364014 502.087036 L 943.393005 502.087036 C 943.393005 502.087036 914.838989 388.89502 913.41803 108.041016 C 919.598022 109.282959 925.263977 110.515991 930.393005 111.694946 C 950.489014 116.31604 962.289001 120.115967 963.455994 120.494995 C 963.52301 120.52002 963.564026 120.532959 963.564026 120.532959 L 963.564026 120.527954 L 963.401978 113.383057 L 963.184998 76.737061 C 963.184998 76.737061 962.922974 76.657959 962.552002 76.545044 L 962.52301 75.44104 C 962.497986 75.432983 962.468018 75.42395 962.439026 75.416016 C 944.239014 70.562012 926.580994 66.552979 909.41803 63.170044 L 909.41803 63.098999 L 910.401978 12.344971 L 910.422974 11.286987 C 910.422974 11.286987 874.835022 3.124023 851.567993 3.473999 L 851.572998 4.032959 L 852.072998 53.128052 L 844.747986 53.14502 C 792.276978 47.282959 746.502014 47.666016 709.085022 50.698975 L 710.14801 2.487061 L 710.159973 1.911987 C 690.867981 1.619995 662.63501 7.170044 653.526978 9.078003 C 651.651978 9.473999 650.526978 9.723999 650.526978 9.723999 L 651.656006 58.119995 Z"></path>
        <path id="path12" fill="#17549b" stroke="none" d="M 736.982971 671.182007 L 633.445007 671.182007 C 642.132996 642.153015 650.254028 610.802979 657.119995 577.432007 L 736.982971 577.432007 L 736.982971 671.182007 Z M 813.025024 577.432007 L 899.137024 577.432007 C 906.004028 610.802979 914.125 642.153015 922.812012 671.182007 L 813.025024 671.182007 L 813.025024 577.432007 Z M 813.025024 794.010986 L 813.025024 734.723022 L 943.854004 734.723022 C 967.857971 800.536011 992.094971 848.028015 1004.333008 870.377991 C 1018.900024 855.197998 1033.824951 840.978027 1048.969971 827.661011 C 1031.487061 794.672974 1017.294983 763.427979 1005.78302 734.723022 L 1047.920044 734.723022 L 1047.920044 671.182007 L 983.007996 671.182007 C 969.40802 628.060974 962.866028 595.265015 959.950012 577.432007 L 1013.025024 577.432007 L 1013.025024 515.973022 L 536.982971 515.973022 L 536.982971 577.432007 L 596.307983 577.432007 C 593.390991 595.265015 586.849976 628.060974 573.25 671.182007 L 511.983002 671.182007 L 511.983002 734.723022 L 550.474976 734.723022 C 539.453979 762.197998 525.940979 792.028015 509.475006 823.465027 C 524.916016 836.315002 540.137024 850.036011 555 864.690002 C 567.945007 840.502991 590.275024 795.393982 612.403992 734.723022 L 736.982971 734.723022 L 736.982971 794.627991 C 658.315979 802.544006 592.578979 856.007019 568.349976 878.203003 C 580.703979 891.057007 592.765991 904.590027 604.461975 918.828003 C 769.669983 778.606995 901.070007 866.640015 958.78302 922.710999 C 970.828979 907.422974 983.262024 892.919006 996.007996 879.185974 C 924.453979 815.807007 855.591003 798.169006 813.025024 794.010986"></path>
        <path id="path13" fill="#ffffff" stroke="none" d="M 743.40802 1459.030029 C 743.40802 1459.030029 442.615997 1443.93396 250.078995 1225.409058 C 146.662003 1108.037964 53.129002 872.221008 96.894997 668.054993 C 96.894997 668.054993 749.687012 746.383972 743.40802 1459.030029 M 555 864.687988 C 540.137024 850.033997 524.916016 836.312988 509.475006 823.463013 C 337.011993 679.945984 137.203995 645.575989 105.416 640.883972 C 155.412003 385.762939 348.244995 181.833984 597.229004 115.762939 L 597.262024 111.72998 L 596.879028 111.80896 L 597.419983 91.45105 L 597.575012 71.509033 C 597.575012 71.509033 598.107971 71.312988 599.03302 70.995972 C 284.200012 148.651001 50.695 433.116943 50.695 772.221008 C 50.695 1169.817017 371.674988 1492.333984 768.40802 1494.395996 C 768.719971 1494.395996 769.03302 1494.405029 769.344971 1494.409058 C 769.875 1481.366943 770.25 1468.509033 770.494995 1455.791992 C 770.528992 1454.32605 770.586975 1452.838013 770.616028 1451.375977 C 775.333008 1209.583984 703.094971 1038.912964 604.461975 918.825989 C 592.765991 904.588013 580.703979 891.054993 568.349976 878.200989 C 563.937012 873.60498 559.482971 869.112976 555 864.687988"></path>
        <path id="path14" fill="#146836" stroke="none" d="M 96.897003 668.057007 C 53.130001 872.223022 146.664001 1108.040039 250.076004 1225.411011 C 442.618011 1443.936035 743.409973 1459.031982 743.409973 1459.031982 C 749.684998 746.385986 96.897003 668.057007 96.897003 668.057007"></path>
        <path id="path15" fill="#146836" stroke="none" d="M 827.429016 1455.560059 C 827.429016 1455.560059 1092.712036 1444.447021 1305.212036 1208.338989 C 1305.212036 1208.338989 1494.094971 1025.000977 1444.094971 669.447021 C 1444.094971 669.447021 821.875 763.893005 827.429016 1455.560059"></path>
    </g></svg>